<?xml version="1.0" encoding="utf-8"?>
<!-- Generator: Adobe Illustrator 27.2.0, SVG Export Plug-In . SVG Version: 6.00 Build 0)  -->
<svg version="1.1" xmlns="http://www.w3.org/2000/svg" xmlns:xlink="http://www.w3.org/1999/xlink" x="0px" y="0px"
	 viewBox="0 0 1080 1080" style="enable-background:new 0 0 1080 1080;" xml:space="preserve">
<style type="text/css">
	.st0{fill:#5970FD;}
	.st1{fill:#4D4D4D;}
</style>
<g id="Layer_1">
	<g>
		<path class="st0" d="M666.61,124.73c-153.44,0-277.82,124.38-277.82,277.81s124.38,277.81,277.82,277.81
			c153.43,0,277.81-124.38,277.81-277.81S820.04,124.73,666.61,124.73z M540.32,591.67c-60.96-40.79-101.11-110.27-101.11-189.13
			s40.15-148.34,101.11-189.12V591.67z M742.02,617.13c-23.6,8.3-48.98,12.81-75.41,12.81c-26.57,0-52.08-4.55-75.78-12.92V301.85
			L742.02,617.13 M592.08,187.65c23.34-8.09,48.44-12.49,74.53-12.49c26.56,0,52.07,4.55,75.77,12.92v312.99L592.08,187.65
			 M792.89,591.67V213.42c60.96,40.77,101.11,110.25,101.11,189.12S853.84,550.88,792.89,591.67z"/>
		<path class="st0" d="M287.58,124.73L287.58,124.73l-50.39,0v0h-0.06v2.36c-1.26,54.7-46.12,98.81-101.11,98.81v50.39
			c38.82,0,74.27-14.67,101.11-38.76v442.82h50.51V124.73H287.58z"/>
		<g>
			<g>
				<g>
					<g>
						<path class="st1" d="M301.01,940.64c4.7,0,9.05-0.17,12.71-0.52c3.83-0.35,6.79-0.7,9.4-1.22v-31.52
							c-2.44-0.7-5.4-1.39-8.88-1.92c-3.48-0.52-7.14-0.7-10.97-0.7c-3.48,0-6.97,0.35-10.27,0.87c-3.31,0.52-6.44,1.57-9.05,2.96
							c-2.61,1.39-4.7,3.13-6.44,5.4c-1.74,2.26-2.61,5.05-2.61,8.36c0,6.97,2.26,11.67,6.97,14.45
							C286.73,939.42,293,940.64,301.01,940.64 M299.09,843.48c8.01,0,14.63,1.04,20.2,2.96c5.4,1.92,9.93,4.7,13.23,8.36
							c3.31,3.48,5.75,7.84,7.14,12.89c1.39,5.05,2.09,10.62,2.09,16.54v66.69c-4.53,0.7-10.27,1.74-17.59,2.79
							c-7.31,1.04-14.8,1.57-22.46,1.57c-5.92,0-11.49-0.52-17.06-1.57c-5.57-1.04-10.45-2.79-14.8-5.22
							c-4.35-2.61-7.66-6.09-10.27-10.45c-2.61-4.53-3.83-10.1-3.83-17.06c0-6.09,1.39-11.32,4-15.5s6.09-7.66,10.27-10.27
							c4.18-2.61,9.05-4.53,14.45-5.57c5.4-1.22,10.97-1.74,16.54-1.74c7.49,0,14.8,0.87,22.11,2.61v-5.22
							c0-3.31-0.35-6.27-1.04-9.4c-0.7-2.96-1.92-5.75-3.83-8.18c-1.92-2.44-4.53-4.35-7.84-5.92c-3.31-1.39-7.49-2.26-12.71-2.26
							c-6.62,0-12.36,0.52-17.24,1.39c-4.88,0.87-8.71,1.92-11.32,2.79L266.88,848c2.61-1.22,6.97-2.26,13.06-3.13
							C285.86,844,292.3,843.48,299.09,843.48"/>
					</g>
					<polygon class="st1" points="454.24,915.91 401.31,808.48 378.84,808.48 378.84,950.91 397.47,950.91 397.47,843.48 
						450.41,950.91 472.87,950.91 472.87,808.48 454.24,808.48 					"/>
					<polygon class="st1" points="210.81,915.91 157.87,808.48 154.22,808.48 135.58,808.48 135.58,950.91 154.22,950.91 
						154.22,843.48 206.98,950.91 229.44,950.91 229.44,808.48 210.81,808.48 					"/>
					<polygon class="st1" points="525.98,808.48 514.66,808.48 514.66,950.91 584.66,950.91 584.66,940.64 584.66,939.77 
						525.98,939.77 					"/>
					<path class="st1" d="M657.97,808.48L612.7,950.91h11.67l11.84-39.18h53.81l12.19,39.18h11.67l-45.45-142.44H657.97z
						 M663.2,826.76l23.51,73.83h-47.02L663.2,826.76z"/>
					<g>
						<path class="st1" d="M802.5,876.56c5.92-2.44,10.62-6.27,14.1-11.67c3.31-5.4,5.05-11.84,5.05-19.15
							c0-12.19-3.31-21.59-9.93-27.86s-16.37-9.4-29.25-9.4h-36.04v142.44h40.22c12.54,0,22.11-3.66,28.91-10.8
							c6.79-7.14,10.1-16.89,10.1-29.43c0-8.53-2.09-15.85-6.44-22.11C815.04,882.31,809.47,878.3,802.5,876.56 M783.52,871.68
							h-25.25v-51.89h24.38c9.05,0,16.02,2.09,20.55,6.27c4.53,4.18,6.62,10.62,6.62,19.5c0,8.71-2.26,15.32-6.79,19.68
							C798.32,869.42,791.88,871.68,783.52,871.68 M787.18,939.94h-28.91V883h30.65c7.84,0.17,14.1,2.79,18.46,7.66
							c4.35,4.88,6.62,11.67,6.62,20.2c0,9.05-2.44,16.19-7.14,21.24C801.98,937.33,795.36,939.94,787.18,939.94"/>
						<path class="st1" d="M940.24,896.93c-2.61-5.05-6.62-9.58-12.19-13.41c-5.4-3.83-13.41-7.49-24.03-10.97
							c-10.45-3.48-18.11-7.49-22.81-11.84c-4.7-4.35-6.97-9.93-6.97-16.89c0-7.31,2.44-13.41,7.49-18.11
							c4.88-4.7,11.84-6.97,20.55-6.97c8.88,0,16.02,2.79,21.07,8.53c5.22,5.75,7.84,13.23,7.84,22.46v0.7h12.36v-0.7
							c0-12.36-3.83-22.64-11.49-30.65c-7.66-7.84-17.59-11.84-29.6-11.84c-11.84,0-21.59,3.48-28.91,10.27
							c-7.49,6.79-11.32,15.85-11.32,26.64c0,10.97,3.83,19.85,11.49,26.64c5.75,5.05,14.8,9.75,26.99,13.93
							c12.02,4,20.37,8.36,24.73,12.71c4.35,4.35,6.44,10.45,6.44,18.11c0,7.66-2.61,13.93-7.84,18.63
							c-5.22,4.7-12.19,6.97-20.9,6.97c-9.93,0-17.94-2.79-23.68-8.36c-5.75-5.57-8.71-13.23-8.71-22.81v-0.87h-12.19v0.7
							c0,8.71,1.92,16.37,5.75,22.64c3.83,6.44,9.23,11.32,16.19,14.8c6.79,3.48,14.45,5.05,22.81,5.05
							c12.36,0,22.29-3.48,29.78-10.27c7.49-6.79,11.32-15.85,11.32-26.99C944.07,908.25,942.85,901.98,940.24,896.93"/>
					</g>
				</g>
			</g>
		</g>
	</g>
</g>
<g id="verde">
</g>
<g id="blanco">
</g>
<g id="negro">
</g>
</svg>
