<?xml version="1.0" encoding="utf-8"?>
<!-- Generator: Adobe Illustrator 27.2.0, SVG Export Plug-In . SVG Version: 6.00 Build 0)  -->
<svg version="1.1" xmlns="http://www.w3.org/2000/svg" xmlns:xlink="http://www.w3.org/1999/xlink" x="0px" y="0px"
	 viewBox="0 0 1920 1080" style="enable-background:new 0 0 1920 1080;" xml:space="preserve">
<style type="text/css">
	.st0{fill:#5970FD;}
	.st1{fill:#4D4D4D;}
</style>
<g id="Layer_1">
	<g>
		<path class="st0" d="M476.76,403.68c-75.29,0-136.33,61.03-136.33,136.32s61.03,136.32,136.33,136.32
			c75.29,0,136.32-61.03,136.32-136.32S552.05,403.68,476.76,403.68z M414.79,632.81c-29.91-20.01-49.61-54.11-49.61-92.81
			s19.7-72.79,49.61-92.8V632.81z M513.76,645.3c-11.58,4.07-24.04,6.28-37,6.28c-13.04,0-25.56-2.23-37.19-6.34V490.59
			L513.76,645.3 M440.18,434.55c11.45-3.97,23.77-6.13,36.57-6.13c13.03,0,25.55,2.23,37.18,6.34v153.59L440.18,434.55
			 M538.72,632.81V447.2c29.91,20.01,49.61,54.1,49.61,92.8S568.63,612.79,538.72,632.81z"/>
		<path class="st0" d="M290.77,403.68L290.77,403.68l-24.73,0v0h-0.03v1.16c-0.62,26.84-22.63,48.49-49.61,48.49v24.73
			c19.05,0,36.44-7.2,49.61-19.02v217.29h24.79V403.68H290.77z"/>
		<g>
			<g>
				<g>
					<g>
						<path class="st1" d="M888.83,613.68c5.72,0,11.02-0.21,15.47-0.64c4.66-0.42,8.26-0.85,11.44-1.48V573.2
							c-2.97-0.85-6.57-1.7-10.81-2.33c-4.24-0.64-8.69-0.85-13.35-0.85c-4.24,0-8.48,0.42-12.5,1.06s-7.84,1.91-11.02,3.6
							c-3.18,1.7-5.72,3.81-7.84,6.57c-2.12,2.75-3.18,6.15-3.18,10.17c0,8.48,2.75,14.2,8.48,17.59
							C871.45,612.19,879.08,613.68,888.83,613.68 M886.5,495.43c9.75,0,17.8,1.27,24.58,3.6c6.57,2.33,12.08,5.72,16.1,10.17
							c4.03,4.24,6.99,9.54,8.69,15.68c1.7,6.15,2.54,12.93,2.54,20.13v81.16c-5.51,0.85-12.5,2.12-21.4,3.39
							c-8.9,1.27-18.01,1.91-27.34,1.91c-7.2,0-13.99-0.64-20.77-1.91s-12.71-3.39-18.01-6.36c-5.3-3.18-9.32-7.42-12.5-12.71
							c-3.18-5.51-4.66-12.29-4.66-20.77c0-7.42,1.7-13.77,4.87-18.86c3.18-5.09,7.42-9.32,12.5-12.5
							c5.09-3.18,11.02-5.51,17.59-6.78c6.57-1.48,13.35-2.12,20.13-2.12c9.11,0,18.01,1.06,26.91,3.18v-6.36
							c0-4.03-0.42-7.63-1.27-11.44c-0.85-3.6-2.33-6.99-4.66-9.96c-2.33-2.97-5.51-5.3-9.54-7.2c-4.03-1.7-9.11-2.75-15.47-2.75
							c-8.05,0-15.05,0.64-20.98,1.7c-5.93,1.06-10.6,2.33-13.77,3.39l-2.75-19.07c3.18-1.48,8.48-2.75,15.89-3.81
							C870.39,496.07,878.23,495.43,886.5,495.43"/>
					</g>
					<polygon class="st1" points="1075.31,583.59 1010.89,452.84 983.55,452.84 983.55,626.18 1006.22,626.18 1006.22,495.43 
						1070.64,626.18 1097.98,626.18 1097.98,452.84 1075.31,452.84 					"/>
					<polygon class="st1" points="779.06,583.59 714.64,452.84 710.19,452.84 687.52,452.84 687.52,626.18 710.19,626.18 
						710.19,495.43 774.4,626.18 801.74,626.18 801.74,452.84 779.06,452.84 					"/>
					<polygon class="st1" points="1162.61,452.84 1148.84,452.84 1148.84,626.18 1234.02,626.18 1234.02,613.68 1234.02,612.62 
						1162.61,612.62 					"/>
					<path class="st1" d="M1323.23,452.84l-55.1,173.34h14.2l14.41-47.68h65.48l14.83,47.68h14.2l-55.31-173.34H1323.23z
						 M1329.59,475.09l28.61,89.85h-57.21L1329.59,475.09z"/>
					<g>
						<path class="st1" d="M1499.11,535.7c7.2-2.97,12.93-7.63,17.16-14.2c4.03-6.57,6.15-14.41,6.15-23.31
							c0-14.83-4.03-26.28-12.08-33.9c-8.05-7.63-19.92-11.44-35.6-11.44h-43.86v173.34h48.95c15.26,0,26.91-4.45,35.18-13.14
							c8.26-8.69,12.29-20.55,12.29-35.81c0-10.38-2.54-19.28-7.84-26.91C1514.37,542.69,1507.59,537.82,1499.11,535.7
							 M1476.02,529.76h-30.73v-63.15h29.67c11.02,0,19.5,2.54,25,7.63c5.51,5.09,8.05,12.93,8.05,23.73
							c0,10.6-2.75,18.65-8.26,23.95C1494.03,527.01,1486.19,529.76,1476.02,529.76 M1480.47,612.83h-35.18v-69.29h37.3
							c9.54,0.21,17.16,3.39,22.46,9.32c5.3,5.93,8.05,14.2,8.05,24.58c0,11.02-2.97,19.71-8.69,25.85
							C1498.48,609.65,1490.43,612.83,1480.47,612.83"/>
						<path class="st1" d="M1666.73,560.49c-3.18-6.15-8.05-11.65-14.83-16.32c-6.57-4.66-16.32-9.11-29.24-13.35
							c-12.71-4.24-22.04-9.11-27.76-14.41c-5.72-5.3-8.48-12.08-8.48-20.55c0-8.9,2.97-16.32,9.11-22.04
							c5.93-5.72,14.41-8.48,25-8.48c10.81,0,19.5,3.39,25.64,10.38c6.36,6.99,9.54,16.1,9.54,27.34v0.85h15.05v-0.85
							c0-15.05-4.66-27.55-13.99-37.3c-9.32-9.54-21.4-14.41-36.02-14.41c-14.41,0-26.28,4.24-35.18,12.5
							c-9.11,8.26-13.77,19.28-13.77,32.42c0,13.35,4.66,24.16,13.99,32.42c6.99,6.15,18.01,11.87,32.85,16.95
							c14.62,4.87,24.79,10.17,30.09,15.47s7.84,12.71,7.84,22.04s-3.18,16.95-9.54,22.67c-6.36,5.72-14.83,8.48-25.43,8.48
							c-12.08,0-21.83-3.39-28.82-10.17c-6.99-6.78-10.6-16.1-10.6-27.76v-1.06h-14.83v0.85c0,10.6,2.33,19.92,6.99,27.55
							c4.66,7.84,11.23,13.77,19.71,18.01c8.26,4.24,17.59,6.15,27.76,6.15c15.05,0,27.12-4.24,36.24-12.5
							c9.11-8.26,13.77-19.28,13.77-32.85C1671.39,574.26,1669.91,566.63,1666.73,560.49"/>
					</g>
				</g>
			</g>
		</g>
	</g>
</g>
<g id="verde">
</g>
<g id="blanco">
</g>
<g id="negro">
</g>
</svg>
